<?xml version="1.0" encoding="utf-8"?>
<!-- Generator: Adobe Illustrator 27.5.0, SVG Export Plug-In . SVG Version: 6.00 Build 0)  -->
<svg version="1.1" xmlns="http://www.w3.org/2000/svg" xmlns:xlink="http://www.w3.org/1999/xlink" x="0px" y="0px"
	 viewBox="0 0 3710 3710" style="enable-background:new 0 0 3710 3710;" xml:space="preserve">
<g id="Background">
	<g>
		<g>
			<rect style="fill:#FFFFFF;" width="3710" height="3710"/>
		</g>
	</g>
</g>
<g id="Illustration">
	<g>
		<linearGradient id="SVGID_1_" gradientUnits="userSpaceOnUse" x1="3376.2283" y1="3573.9658" x2="1359.9177" y2="1397.6302">
			<stop  offset="0" style="stop-color:#DAE3FE"/>
			<stop  offset="1" style="stop-color:#E9EFFD"/>
		</linearGradient>
		<path style="fill:url(#SVGID_1_);" d="M3095.242,2333.754c-277.056,647.585-1008.394,925.739-1581.408,878.313
			c-156.456-12.949-471.25-39.003-717.043-271.442c-472.029-446.384-399.332-1379.45,52.535-1928.788
			c58.191-70.743,460.982-544.716,1088.656-538.372c459.549,4.645,782.102,264.238,821.323,296.578
			c49.547,40.854,158.827,137.938,257.315,291.954C3248.032,1423.883,3268.374,1929.077,3095.242,2333.754z"/>
		<g>
			<g>
				<g>
					<path style="fill:#91B3FA;" d="M2533.681,1440.516c-23.07-62.303-37.728-126.64-36.172-195.057
						c3.924-172.388,118.179-320.831,205.059-461.474c79.849-129.265,148.628-326.555-79.873-329.717
						c-182.043-2.519-411.27,157.778-453.007,343.31c-49.392,219.585,32.697,509.942-114.399,699.882
						c-205.78,265.716-329.2,188.93-373.606,665.544c-18.974,203.654,83.364,326.5,206.806,400.413
						c194.837,116.661,441.688,99.855,618.824-42.254c156.49-125.545,260.447-317.299,250.261-520.485
						C2747.286,1795.465,2602.769,1627.101,2533.681,1440.516z"/>
					<path style="fill:#7D97F4;" d="M2238.939,2962.506c-4.509-0.42-8.327-3.849-9.047-8.531
						c-70.654-459.482-93.959-872.236-69.274-1226.796c19.779-284.074,70.247-531.732,149.995-736.104
						c71.169-182.375,153.034-295.927,209.177-359.074c61.345-68.997,105.511-94.313,107.363-95.356
						c4.872-2.733,11.031-1.024,13.771,3.837c2.74,4.856,1.029,11.016-3.824,13.763c-0.433,0.246-44.017,25.394-103.546,92.708
						c-55.004,62.195-135.239,174.108-205.116,354.071c-78.645,202.538-128.377,448.123-147.817,729.936
						c-24.314,352.525-1.015,762.972,69.254,1219.946c0.848,5.52-2.938,10.678-8.454,11.527
						C2240.58,2962.56,2239.748,2962.582,2238.939,2962.506z"/>
				</g>
			</g>
			<g>
				<path style="fill:#BDD0FB;" d="M3177.133,2229.604c41.575-167.32-1.955-367.913-16.02-550.257
					c-7.437-96.41-6.192-191.284,17.957-285.467c24.009-93.64,78.249-192.282,45.892-290.82
					c-65.202-198.518-270.549-130.071-396.922,3.029c-146.649,154.456-207.869,423.471-277.21,628.552
					c-41.801,123.633-99.111,249.099-126.951,376.46c-46.121,210.984-11.669,363.654,81.104,473.235
					c88.983,105.105,236.268,138.902,362.278,83.348C2981.092,2617.497,3110.064,2499.523,3177.133,2229.604z"/>
				<path style="fill:#91B3FA;" d="M2652.052,2979.716c-5.374-0.501-9.761-4.819-10.171-10.381
					c-0.194-2.618-18.995-265.794,13.193-623.447c29.723-330.257,110.245-811.138,325.055-1226.567
					c2.865-5.529,9.648-7.674,15.179-4.831c5.525,2.857,7.688,9.65,4.831,15.179c-117.638,227.503-269.106,623.528-322.63,1218.237
					c-32.026,355.833-13.36,617.17-13.167,619.766c0.461,6.206-4.197,11.605-10.399,12.065
					C2653.302,2979.781,2652.674,2979.773,2652.052,2979.716z"/>
			</g>
		</g>
		<g>
			<path style="fill:#91B3FA;" d="M1262.544,2869.854c244.271-79.207,388.783-468.075,283.111-620.155
				c-71.4-102.757-210.717-30.771-314.65-142.325c-132.699-142.43,16.405-343.504-55.36-648.917
				c-61.073-259.91-266.922-530.774-417.744-507.697c-157.877,24.156-298.28,376.948-207.629,618.753
				c58.951,157.249,184.924,185.691,190.079,323.581c5.98,159.999-160.534,204.473-186.611,354.224
				C506.898,2516.314,939.39,2974.639,1262.544,2869.854z"/>
			<path style="fill:#7D97F4;" d="M1124.035,2952.355c1.34,0.226,2.749,0.16,4.14-0.249c4.918-1.441,7.735-6.593,6.294-11.509
				c-194.445-663.61-161.934-1390.009-161.585-1397.269c0.248-5.118-3.705-9.472-8.815-9.712c-5.116-0.248-9.466,3.7-9.712,8.816
				c-0.353,7.292-33.002,736.81,162.31,1403.38C1117.699,2949.337,1120.64,2951.783,1124.035,2952.355z"/>
			<path style="fill:#BDD0FB;" d="M708.687,1688.386c0.939,0.158,1.938,0.014,2.84-0.47c2.154-1.165,2.957-3.852,1.794-6.006
				c-73.667-136.447-147.313-335.203-79.798-507.232c40.208-102.452,112.385-147.267,113.108-147.708
				c2.091-1.272,2.756-3.997,1.484-6.089c-1.274-2.093-4.002-2.759-6.092-1.482c-3.061,1.86-75.461,46.83-116.753,152.042
				c-37.951,96.696-54.834,264.483,80.248,514.678C706.196,1687.37,707.387,1688.167,708.687,1688.386z"/>
		</g>
		<g>
			<g>
				
					<linearGradient id="SVGID_00000018210838434312127220000002683288874922176957_" gradientUnits="userSpaceOnUse" x1="-4494.6152" y1="3723.0149" x2="-4484.3633" y2="3415.4688" gradientTransform="matrix(-1 0 0 1 -3312.219 0)">
					<stop  offset="0" style="stop-color:#4F52FF"/>
					<stop  offset="1" style="stop-color:#4042E2"/>
				</linearGradient>
				<path style="fill:url(#SVGID_00000018210838434312127220000002683288874922176957_);" d="M1078.857,3203.411
					c-0.02-1.296,0.068-2.611,0.4-3.934c19.617-77.774,99.829-117.638,99.829-117.638l38.581,3.024
					c22.182,68.549,36.487,102.013,32.924,120.739c-0.098,0.524-0.258,1.024-0.397,1.531
					C1218.367,3209.979,1152.86,3211.834,1078.857,3203.411z"/>
				<path style="fill:#7D97F4;" d="M1250.194,3207.134c-1.719,6.254-6.335,11.123-12.244,12.365
					c-45.274,9.521-117.232,1.86-147.445-2.092c-6.665-0.869-11.538-7.036-11.649-13.995
					C1152.86,3211.834,1218.367,3209.979,1250.194,3207.134z"/>
				
					<linearGradient id="SVGID_00000111912432031402000630000001064797740026797191_" gradientUnits="userSpaceOnUse" x1="9180.3193" y1="2943.5293" x2="9145.9258" y2="3243.6921" gradientTransform="matrix(1 0 0 1 -7985.7158 0)">
					<stop  offset="0" style="stop-color:#FEBBBA"/>
					<stop  offset="1" style="stop-color:#FF928E"/>
				</linearGradient>
				<path style="fill:url(#SVGID_00000111912432031402000630000001064797740026797191_);" d="M1147.316,3021.8l16.891,81.321
					c1.239,5.958,5.817,10.42,11.364,10.941c6.788,0.637,16.453,1.011,26.171-0.417c8.715-1.28,14.784-10.136,13.239-19.64
					l-11.743-72.205H1147.316z"/>
				<path style="fill:#7D97F4;" d="M1578.018,3206.459c-41.207-1.152-62.518-6.006-73.538-10.51
					c-0.025,4.097-0.001,8.267,0.132,12.587c0.141,4.614,3.559,8.299,7.763,8.273l226.248-1.461
					c7.22-0.047,11.441-8.42,8.311-15.041C1717.27,3202.759,1641.717,3208.241,1578.018,3206.459z"/>
				
					<linearGradient id="SVGID_00000087408923781170087480000013465213207777788851_" gradientUnits="userSpaceOnUse" x1="9587.5244" y1="3913.1948" x2="9597.7764" y2="3605.6482" gradientTransform="matrix(1 0 0 1 -7985.7158 0)">
					<stop  offset="0" style="stop-color:#4F52FF"/>
					<stop  offset="1" style="stop-color:#4042E2"/>
				</linearGradient>
				<path style="fill:url(#SVGID_00000087408923781170087480000013465213207777788851_);" d="M1746.935,3200.308
					c-0.273-0.576-0.507-1.164-0.896-1.707c-19.98-27.918-70.871-83.512-171.431-107.625l-48.242-1.523
					c0,0-21.479,37.336-21.886,106.496c11.021,4.503,32.332,9.358,73.538,10.51
					C1641.717,3208.241,1717.27,3202.759,1746.935,3200.308z"/>
				
					<linearGradient id="SVGID_00000008869457740563871890000012624489512420064191_" gradientUnits="userSpaceOnUse" x1="9542.6338" y1="2981.929" x2="9510.46" y2="3262.7202" gradientTransform="matrix(1 0 0 1 -7985.7158 0)">
					<stop  offset="0" style="stop-color:#FEBBBA"/>
					<stop  offset="1" style="stop-color:#FF928E"/>
				</linearGradient>
				<path style="fill:url(#SVGID_00000008869457740563871890000012624489512420064191_);" d="M1517.42,3016.344
					c0.536,3.596,7.15,58.249,9.709,79.439c0.608,5.035,4.256,8.931,8.854,9.482c8.214,0.98,21.507,1.872,33.136-0.511
					c6.274-1.286,10.815-7.313,10.815-14.321v-85.789L1517.42,3016.344z"/>
				
					<linearGradient id="SVGID_00000139295523726285041500000012734511282105877420_" gradientUnits="userSpaceOnUse" x1="7532.1816" y1="2972.9521" x2="7570.7783" y2="1763.6223" gradientTransform="matrix(1 0 0 1 -6173.8809 0)">
					<stop  offset="0" style="stop-color:#09005D"/>
					<stop  offset="1" style="stop-color:#1A0F91"/>
				</linearGradient>
				<path style="fill:url(#SVGID_00000139295523726285041500000012734511282105877420_);" d="M1179.552,1953.933
					c0,0-77.197,686.179-34.31,1115.041c0,0,51.463,0,77.195-8.578c0,0,80.218-670.906,106.168-862.889
					c0.977-7.237,11.311-7.566,12.729-0.402c32.017,161.516,157.775,794.898,172.729,854.714c0,0,42.887,17.155,77.194,0
					c0,0-68.616-917.764-120.08-1080.731L1179.552,1953.933z"/>
				
					<linearGradient id="SVGID_00000021108886469090143870000013137744100853024958_" gradientUnits="userSpaceOnUse" x1="1946.5983" y1="1072.2964" x2="813.9921" y2="1869.1296">
					<stop  offset="0" style="stop-color:#4F52FF"/>
					<stop  offset="1" style="stop-color:#4042E2"/>
				</linearGradient>
				<path style="fill:url(#SVGID_00000021108886469090143870000013137744100853024958_);" d="M1025.161,1156.25
					c0,0,325.936-51.464,583.252,17.154l-17.155,265.894c0,0-68.616,368.822-120.08,531.79c0,0-197.277,34.308-291.626-17.155
					c0,0-77.197-463.171-120.082-531.789C1059.47,1422.144,1016.583,1242.021,1025.161,1156.25z"/>
				
					<linearGradient id="SVGID_00000173142387630215554640000013780027132706077616_" gradientUnits="userSpaceOnUse" x1="1898.5902" y1="1004.8809" x2="765.9865" y2="1801.7124">
					<stop  offset="0" style="stop-color:#4F52FF"/>
					<stop  offset="1" style="stop-color:#4042E2"/>
				</linearGradient>
				<path style="fill:url(#SVGID_00000173142387630215554640000013780027132706077616_);" d="M1512.075,1484.644
					c0,0,953.891-391.94,104.085-540.049l-7.748,91.777c0,0,344.352,98.864-24.628,132.408
					C1583.785,1168.78,1508.755,1429.219,1512.075,1484.644z"/>
				
					<linearGradient id="SVGID_00000175295082580734640470000001548523560490886842_" gradientUnits="userSpaceOnUse" x1="7392.9951" y1="1040.6683" x2="7547.229" y2="1040.6683" gradientTransform="matrix(1 0 0 1 -6173.8809 0)">
					<stop  offset="0" style="stop-color:#FEBBBA"/>
					<stop  offset="1" style="stop-color:#FF928E"/>
				</linearGradient>
				<path style="fill:url(#SVGID_00000175295082580734640470000001548523560490886842_);" d="M1251.584,921.878l-32.47,219.577
					c0,0,90.714,41.673,154.234-1.787l-13.676-154.964L1251.584,921.878z"/>
				<g>
					
						<linearGradient id="SVGID_00000075131762931834061690000007461358105092876456_" gradientUnits="userSpaceOnUse" x1="1874.553" y1="969.8921" x2="741.9484" y2="1766.7241">
						<stop  offset="0" style="stop-color:#4F52FF"/>
						<stop  offset="1" style="stop-color:#4042E2"/>
					</linearGradient>
					<path style="fill:url(#SVGID_00000075131762931834061690000007461358105092876456_);" d="M1025.161,1156.25
						c0,0-506.057,548.943,90.061,759.085v-42.886c0,0-223.007-188.701-51.463-446.016
						C1063.759,1426.433,1042.315,1181.981,1025.161,1156.25z"/>
					
						<linearGradient id="SVGID_00000003088122439895087070000000001221529112179120_" gradientUnits="userSpaceOnUse" x1="7430.5322" y1="1827.7086" x2="7156.0615" y2="2062.1519" gradientTransform="matrix(1 0 0 1 -6173.8809 0)">
						<stop  offset="0" style="stop-color:#FEBBBA"/>
						<stop  offset="1" style="stop-color:#FF928E"/>
					</linearGradient>
					<path style="fill:url(#SVGID_00000003088122439895087070000000001221529112179120_);" d="M1119.511,1876.738
						c0,0,77.195-51.464,111.504-34.308c34.309,17.153,34.309,42.885,34.309,42.885s-17.154,34.31-42.886,25.731
						c-25.732-8.576-85.772,8.579-111.504,0C1110.933,1911.045,1102.356,1876.738,1119.511,1876.738z"/>
				</g>
				<g>
					<g>
						
							<linearGradient id="SVGID_00000068662058862432844150000012372575577992796313_" gradientUnits="userSpaceOnUse" x1="-2461.0994" y1="1362.6887" x2="-2308.6926" y2="1362.6887" gradientTransform="matrix(-0.9997 -0.0225 -0.0225 0.9997 -613.4069 30.669)">
							<stop  offset="0" style="stop-color:#FEBBBA"/>
							<stop  offset="1" style="stop-color:#FF928E"/>
						</linearGradient>
						<path style="fill:url(#SVGID_00000068662058862432844150000012372575577992796313_);" d="M1772.912,1293.755
							c78.84,108.665,56.172,225.967-101.942,304.889c-11.13-10.121-14.261-19.6-3.075-41.004
							c125.989-90.718,106.716-173.046,29.25-225.322L1772.912,1293.755z"/>
						
							<linearGradient id="SVGID_00000094605554136723227100000000638985967097073597_" gradientUnits="userSpaceOnUse" x1="-2922.9216" y1="931.1712" x2="-2769.1497" y2="931.1712" gradientTransform="matrix(-0.9904 -0.1381 -0.1381 0.9904 -1127.7516 160.1013)">
							<stop  offset="0" style="stop-color:#FEBBBA"/>
							<stop  offset="1" style="stop-color:#FF928E"/>
						</linearGradient>
						<path style="fill:url(#SVGID_00000094605554136723227100000000638985967097073597_);" d="M1608.263,1343.208
							c63.128,112.616,49.317,200.5-132.147,258.699c-9.938-25.688-5.81-39.936,9.596-45.007
							c137.358-69.011,102.326-123.233,34.136-181.759L1608.263,1343.208z"/>
						
							<linearGradient id="SVGID_00000123399293956888769720000004907630730371529135_" gradientUnits="userSpaceOnUse" x1="-1188.286" y1="2223.6484" x2="-1106.4253" y2="2223.6484" gradientTransform="matrix(0.5875 -0.8093 0.8093 0.5875 339.8055 -631.3087)">
							<stop  offset="0" style="stop-color:#09005D"/>
							<stop  offset="1" style="stop-color:#1A0F91"/>
						</linearGradient>
						<path style="fill:url(#SVGID_00000123399293956888769720000004907630730371529135_);" d="M1476.137,1562.251
							c-5.176,21.738-2.775,32.994,13.705,37.495c9.941,35.605,4.458,55.319-12.559,63.149
							c-21.181-30.102-37.224-62.41-42.429-99.373C1450.581,1557.7,1472.382,1552.633,1476.137,1562.251z"/>
						
							<linearGradient id="SVGID_00000112627167711777206360000010786309517479865506_" gradientUnits="userSpaceOnUse" x1="-1071.4309" y1="2376.019" x2="-990.0568" y2="2376.019" gradientTransform="matrix(0.5875 -0.8093 0.8093 0.5875 339.8055 -631.3087)">
							<stop  offset="0" style="stop-color:#09005D"/>
							<stop  offset="1" style="stop-color:#1A0F91"/>
						</linearGradient>
						<path style="fill:url(#SVGID_00000112627167711777206360000010786309517479865506_);" d="M1667.895,1557.641
							c-5.145,21.609-2.759,32.798,13.624,37.272c9.882,35.394,4.432,54.991-12.485,62.774
							c-21.055-29.923-37.003-62.039-42.177-98.782C1642.492,1553.117,1664.163,1548.079,1667.895,1557.641z"/>
						
							<linearGradient id="SVGID_00000137814757029938894740000001815154788044642442_" gradientUnits="userSpaceOnUse" x1="1994.0809" y1="675.5303" x2="1472.8063" y2="1437.3945">
							<stop  offset="0" style="stop-color:#09005D"/>
							<stop  offset="1" style="stop-color:#1A0F91"/>
						</linearGradient>
						<path style="fill:url(#SVGID_00000137814757029938894740000001815154788044642442_);" d="M1439.021,1140.856
							c-10.757,73.439,22.048,166.609,79.895,242.992c41.019,4.539,85.538,0.636,119.95-21l-43.533-98.705l20.522-6.12
							l85.303,87.445c38.442,5.641,64.128-13.857,94.172-33.535c-33.447-73.728-109.514-108.163-129.132-211.147L1439.021,1140.856z
							"/>
					</g>
					<g>
						
							<linearGradient id="SVGID_00000108308882599116769260000011915420365200784275_" gradientUnits="userSpaceOnUse" x1="595.5846" y1="-1010.3945" x2="637.582" y2="-1393.623" gradientTransform="matrix(-0.8899 0.4561 -0.4561 -0.8899 1270.639 -706.6598)">
							<stop  offset="0" style="stop-color:#FEBBBA"/>
							<stop  offset="1" style="stop-color:#FF928E"/>
						</linearGradient>
						
							<path style="fill-rule:evenodd;clip-rule:evenodd;fill:url(#SVGID_00000108308882599116769260000011915420365200784275_);" d="
							M1338.022,837.367c0,0-90.125-42.058-139.641-272.605l24.644-12.631c0,0,95.668,188.262,145.038,231.161
							C1417.435,826.192,1338.022,837.367,1338.022,837.367z"/>
						
							<linearGradient id="SVGID_00000097467467583409053730000003233376303696103812_" gradientUnits="userSpaceOnUse" x1="624.0131" y1="-1002.301" x2="668.3221" y2="-1406.6224" gradientTransform="matrix(-0.8899 0.4561 -0.4561 -0.8899 1270.639 -706.6598)">
							<stop  offset="0" style="stop-color:#FEBBBA"/>
							<stop  offset="1" style="stop-color:#FF928E"/>
						</linearGradient>
						
							<path style="fill-rule:evenodd;clip-rule:evenodd;fill:url(#SVGID_00000097467467583409053730000003233376303696103812_);" d="
							M1217.448,579.883l-19.067-15.122c0,0-26.013-25.255-35.144-46.713c-9.131-21.46,17.676-40.8,27.786-45.359
							c10.11-4.559,15.656,5.046,13.641,26.616c0,0,23.034,26.781,19.718,65.821L1217.448,579.883z"/>
					</g>
					<g>
						
							<linearGradient id="SVGID_00000092443312844055091230000014247357411270434715_" gradientUnits="userSpaceOnUse" x1="14841.1133" y1="11699.958" x2="14044.4453" y2="10935.1553" gradientTransform="matrix(0.8899 0.4561 0.4561 -0.8899 34.196 -706.6598)">
							<stop  offset="0" style="stop-color:#FEBBBA"/>
							<stop  offset="1" style="stop-color:#FF928E"/>
						</linearGradient>
						
							<path style="fill-rule:evenodd;clip-rule:evenodd;fill:url(#SVGID_00000092443312844055091230000014247357411270434715_);" d="
							M1740.896,837.331c0,0,101.902-158.753,120.308-290.594l-24.644-12.631c0,0-101.908,213.407-151.279,256.306
							C1635.91,833.312,1740.896,837.331,1740.896,837.331z"/>
						
							<linearGradient id="SVGID_00000011729392464518330500000013621188119717860224_" gradientUnits="userSpaceOnUse" x1="14735.7168" y1="11809.7373" x2="13939.0469" y2="11044.9336" gradientTransform="matrix(0.8899 0.4561 0.4561 -0.8899 34.196 -706.6598)">
							<stop  offset="0" style="stop-color:#FEBBBA"/>
							<stop  offset="1" style="stop-color:#FF928E"/>
						</linearGradient>
						
							<path style="fill-rule:evenodd;clip-rule:evenodd;fill:url(#SVGID_00000011729392464518330500000013621188119717860224_);" d="
							M1842.137,561.859l19.066-15.122c0,0,26.013-25.254,35.145-46.713c9.131-21.459-17.676-40.799-27.786-45.359
							c-10.11-4.559-15.655,5.045-13.641,26.616c0,0-23.033,26.781-19.718,65.821L1842.137,561.859z"/>
					</g>
					
						<linearGradient id="SVGID_00000161603415421579452740000017991872376530537641_" gradientUnits="userSpaceOnUse" x1="1330.6293" y1="1008.3428" x2="1294.4274" y2="718.7267" gradientTransform="matrix(0.9402 -0.3405 0.3405 0.9402 140.0345 218.113)">
						<stop  offset="0" style="stop-color:#FEBBBA"/>
						<stop  offset="1" style="stop-color:#FF928E"/>
					</linearGradient>
					<path style="fill-rule:evenodd;clip-rule:evenodd;fill:url(#SVGID_00000161603415421579452740000017991872376530537641_);" d="
						M1677.811,628.533c0,0-7.163-20.207,11.092-23.808c18.255-3.601,0.84,50.053,0.84,50.053L1677.811,628.533z"/>
					
						<linearGradient id="SVGID_00000116232158427966343960000004461775218546664340_" gradientUnits="userSpaceOnUse" x1="2076.2605" y1="102.4844" x2="1808.9659" y2="503.4257">
						<stop  offset="0" style="stop-color:#FF928E"/>
						<stop  offset="1" style="stop-color:#FE7062"/>
					</linearGradient>
					<path style="fill-rule:evenodd;clip-rule:evenodd;fill:url(#SVGID_00000116232158427966343960000004461775218546664340_);" d="
						M1344.031,753.25c0,0,84.117,54.075,186.258,48.067c85.185-5.011,136.937-26.738,165.714-51.239
						c10.292-8.763,24.923-10.192,36.29-2.878c12.435,8.001,28.991,20.451,46.391,38.626c4.369,4.564,5.258,11.552,1.932,16.924
						c-24.814,40.081-51.268,68.106-79.317,84.405c-9.495,10.464-14.587,24.187-14.215,38.312l5.182,196.893
						c0.143,5.459-3.647,10.211-9.013,11.229c-37.338,7.085-179.039,31.755-267.122,16.211v-212.36
						c0-15.787-8.73-30.147-22.532-37.811c-18.5-10.271-46.05-30.388-73.6-68.27L1344.031,753.25z"/>
					
						<linearGradient id="SVGID_00000156554713266090718120000014403525504551258543_" gradientUnits="userSpaceOnUse" x1="1481.059" y1="963.0919" x2="1571.5605" y2="623.7104">
						<stop  offset="0" style="stop-color:#FEBBBA"/>
						<stop  offset="1" style="stop-color:#FF928E"/>
					</linearGradient>
					<path style="fill-rule:evenodd;clip-rule:evenodd;fill:url(#SVGID_00000156554713266090718120000014403525504551258543_);" d="
						M1489.93,707.84l-9.231,101.376c0,0,53.507,31.264,99.541,3.932l-8.175-88.546L1489.93,707.84z"/>
					
						<linearGradient id="SVGID_00000017496806757238957640000013948403386874671521_" gradientUnits="userSpaceOnUse" x1="1179.6738" y1="917.0991" x2="1056.1029" y2="680.9688" gradientTransform="matrix(0.9011 -0.4336 0.4336 0.9011 146.2482 336.2941)">
						<stop  offset="0" style="stop-color:#09005D"/>
						<stop  offset="1" style="stop-color:#1A0F91"/>
					</linearGradient>
					<path style="fill-rule:evenodd;clip-rule:evenodd;fill:url(#SVGID_00000017496806757238957640000013948403386874671521_);" d="
						M1687.593,635.76c0,0,23.451-40.157-6.42-61.273c0,0,16.022-35.335-14.281-60.894c0,0-48.259-112.957-149.572-33.721
						c0,0-87.23-25.94-115.291,82.538c0,0-29.006,16.278-15.721,56.807c0,0-3.258,150.339,128.414,99.661L1687.593,635.76z"/>
					
						<linearGradient id="SVGID_00000051382563034212554480000002724172233926264734_" gradientUnits="userSpaceOnUse" x1="1216.4515" y1="1026.2026" x2="1179.6691" y2="731.9418" gradientTransform="matrix(0.9402 -0.3405 0.3405 0.9402 140.0345 218.113)">
						<stop  offset="0" style="stop-color:#FEBBBA"/>
						<stop  offset="1" style="stop-color:#FF928E"/>
					</linearGradient>
					<path style="fill-rule:evenodd;clip-rule:evenodd;fill:url(#SVGID_00000051382563034212554480000002724172233926264734_);" d="
						M1644.233,551.784c0,0,111.617,168.186-3.706,219.703c-108.84,48.621-154.701-63.06-154.701-63.06s-47.86-49.587-31.784-87.764
						C1470.117,582.486,1617.028,530.888,1644.233,551.784z"/>
					
						<linearGradient id="SVGID_00000183251408877113305750000001236287314206101158_" gradientUnits="userSpaceOnUse" x1="1228.7045" y1="901.2878" x2="1112.3373" y2="678.9229" gradientTransform="matrix(0.9402 -0.3405 0.3405 0.9402 140.0345 218.113)">
						<stop  offset="0" style="stop-color:#09005D"/>
						<stop  offset="1" style="stop-color:#1A0F91"/>
					</linearGradient>
					<path style="fill-rule:evenodd;clip-rule:evenodd;fill:url(#SVGID_00000183251408877113305750000001236287314206101158_);" d="
						M1474.942,681.939c0,0,109.242-34.58,99.9-99.098c0,0,18.924,1.89,24.731-20.4c0,0,53.609,48.227,67.737,14.503
						c0,0-9.386-83.503-74.882-56.442c-65.496,27.06-125.319,54.581-142.852,73.846
						C1432.043,613.613,1417.488,660.234,1474.942,681.939z"/>
					
						<linearGradient id="SVGID_00000054954020235651019920000014570799567154931864_" gradientUnits="userSpaceOnUse" x1="1107.7555" y1="1036.2039" x2="1071.5531" y2="746.5836" gradientTransform="matrix(0.9402 -0.3405 0.3405 0.9402 140.0345 218.113)">
						<stop  offset="0" style="stop-color:#FEBBBA"/>
						<stop  offset="1" style="stop-color:#FF928E"/>
					</linearGradient>
					<path style="fill-rule:evenodd;clip-rule:evenodd;fill:url(#SVGID_00000054954020235651019920000014570799567154931864_);" d="
						M1500.151,723.442l-19.406-53.348c0,0-37.498-17.231-32.56,11.792C1453.124,710.908,1486.82,726.94,1500.151,723.442z"/>
				</g>
				<g>
					
						<linearGradient id="SVGID_00000165216620906886538170000016168321178230947487_" gradientUnits="userSpaceOnUse" x1="4319.2241" y1="3822.7654" x2="4090.6848" y2="4125.1045" gradientTransform="matrix(0.6854 -0.7281 0.7281 0.6854 -4427.0991 1318.7853)">
						<stop  offset="0" style="stop-color:#FEBBBA"/>
						<stop  offset="1" style="stop-color:#FF928E"/>
					</linearGradient>
					<path style="fill:url(#SVGID_00000165216620906886538170000016168321178230947487_);" d="M1346.429,760.522
						c2.194,2.066,92.588,179.578,92.588,179.578l-102.455,49.458l-110.669-155.517
						C1225.893,834.042,1309.702,725.948,1346.429,760.522z"/>
					
						<linearGradient id="SVGID_00000160185357904951010030000015068498033203046839_" gradientUnits="userSpaceOnUse" x1="4144.6846" y1="3895.3718" x2="4417.6772" y2="3895.3718" gradientTransform="matrix(0.6854 -0.7281 0.7281 0.6854 -4427.0991 1318.7853)">
						<stop  offset="0" style="stop-color:#09005D"/>
						<stop  offset="1" style="stop-color:#1A0F91"/>
					</linearGradient>
					<path style="fill:url(#SVGID_00000160185357904951010030000015068498033203046839_);" d="M1271.223,838.347
						c-1.828,4.729-1.378,10.006,1.23,14.354l51.098,85.181c0.776,1.291,1.699,2.46,2.803,3.486
						c6.082,5.663,26.894,22.13,42.983-0.291c13.714-19.109,26.58-36.483,40.367-43.648c8.05-4.185,17.959-0.844,22.047,7.258
						c8.417,16.686,24.725,50.7,34.97,82.954c2.568,8.085-1.606,16.764-9.467,19.949c-20.745,8.405-61.746,23.605-98.132,28.627
						c-5.976,0.826-11.895-1.697-15.451-6.571c-15.653-21.444-59.772-81.372-74.831-96.372c-13.99-13.938-39.809-8.681-51.443-5.339
						c-4.416,1.27-9.119,0.659-13.055-1.713c-11.804-7.109-32.404-24.814-13.56-54.79c4.686-7.452,2.298-17.381-5.059-22.218
						c-13.177-8.67-27.48-24.941-13.854-51.294c13.792-26.675,38.423-29.07,55.198-27.021c7.422,0.907,14.959-2.986,17.805-9.899
						c1.267-3.075,3.771-5.697,8.432-6.643c8.792-1.784,14.563-9.825,12.838-18.628c-2.958-15.097-0.73-34.707,23.372-47.959
						c44.206-24.305,82.928,15.298,92.773,48.727c9.848,33.432-39.578,57.057-70.669,61.001
						C1288.782,800.395,1276.26,825.32,1271.223,838.347z"/>
					
						<linearGradient id="SVGID_00000083784827610245996750000016258029982845848457_" gradientUnits="userSpaceOnUse" x1="3984.5037" y1="4062.1936" x2="4167.8105" y2="3874.1257" gradientTransform="matrix(0.6854 -0.7281 0.7281 0.6854 -4427.0991 1318.7853)">
						<stop  offset="0" style="stop-color:#FEBBBA"/>
						<stop  offset="1" style="stop-color:#FF928E"/>
					</linearGradient>
					<path style="fill:url(#SVGID_00000083784827610245996750000016258029982845848457_);" d="M1288.033,964.554
						c0,0-19.658-57.516-44.82-55.404c-25.163,2.111-44.966,27.177-13.782,55.356
						C1268.221,999.556,1288.033,964.554,1288.033,964.554z"/>
				</g>
				<g>
					
						<linearGradient id="SVGID_00000111869848487583839270000001529723527683901875_" gradientUnits="userSpaceOnUse" x1="1828.9261" y1="905.0397" x2="696.3232" y2="1701.8705">
						<stop  offset="0" style="stop-color:#4F52FF"/>
						<stop  offset="1" style="stop-color:#4042E2"/>
					</linearGradient>
					<path style="fill:url(#SVGID_00000111869848487583839270000001529723527683901875_);" d="M1616.16,944.595l-7.747,91.777
						c0,0,74.942,21.518,117.44,47.883c38.18-28.875,77.536-54.908,117.528-79.25
						C1789.037,982.249,1714.755,961.779,1616.16,944.595z"/>
					
						<linearGradient id="SVGID_00000042709116982704302550000007368643320341666192_" gradientUnits="userSpaceOnUse" x1="1604.0809" y1="860.8753" x2="1637.0577" y2="1033.0874">
						<stop  offset="0" style="stop-color:#FEBBBA"/>
						<stop  offset="1" style="stop-color:#FF928E"/>
					</linearGradient>
					<path style="fill:url(#SVGID_00000042709116982704302550000007368643320341666192_);" d="M1648.292,953.74
						c-15.299-35.86-36.115-48.57-54.761-54.093c-2.008-0.595-3.962,1.112-3.68,3.187c2.776,20.405,8.069,23.223-0.517,19.045
						L1648.292,953.74z"/>
					
						<linearGradient id="SVGID_00000037656227850817981380000008842878893376207530_" gradientUnits="userSpaceOnUse" x1="-5815.1279" y1="878.1818" x2="-5894.5566" y2="1139.1627" gradientTransform="matrix(-1 0 0 1 -4276.8511 0)">
						<stop  offset="0" style="stop-color:#FEBBBA"/>
						<stop  offset="1" style="stop-color:#FF928E"/>
					</linearGradient>
					<path style="fill:url(#SVGID_00000037656227850817981380000008842878893376207530_);" d="M1660.904,1003.85
						c0,0-2.176-73.586-52.492-81.972c-50.316-8.385-119.328,26.585-127.714,51.743c-8.386,25.158,91.051,76.03,138.114,71.45
						C1656.045,1041.448,1660.904,1003.85,1660.904,1003.85z"/>
				</g>
			</g>
			<g>
				
					<linearGradient id="SVGID_00000013904371953281561350000003851979494651315867_" gradientUnits="userSpaceOnUse" x1="6621.7954" y1="-1022.1399" x2="7606.54" y2="-2148.5427" gradientTransform="matrix(0.0481 -1.007 -1.155 0.0184 275.4767 8150.5674)">
					<stop  offset="0" style="stop-color:#FEBBBA"/>
					<stop  offset="1" style="stop-color:#FF928E"/>
				</linearGradient>
				<path style="fill:url(#SVGID_00000013904371953281561350000003851979494651315867_);" d="M2401.801,1227.666
					c0,0-126.238,173.591-333.782,239.96c-207.544,66.369-218.29-173.871-218.29-173.871s-9.497-71.79-30.992-114.027
					c-21.494-42.236,86.751-11.091,91.503,40.874c4.751,51.963-45.023,33.83,0.528,102.493
					c44.374,66.887,164.495,96.661,322.46-107.848c9.156-11.855,21.317-21.92,35.615-28.85
					C2368.595,1138.046,2438.949,1157.739,2401.801,1227.666z"/>
				
					<linearGradient id="SVGID_00000079454486714062561620000011885357154089696190_" gradientUnits="userSpaceOnUse" x1="4632.6016" y1="843.7751" x2="5770.9604" y2="2088.6255" gradientTransform="matrix(0.8621 -0.0026 -0.0026 1.0238 -1681.193 -0.2402)">
					<stop  offset="0" style="stop-color:#09005D"/>
					<stop  offset="1" style="stop-color:#1A0F91"/>
				</linearGradient>
				<path style="fill:url(#SVGID_00000079454486714062561620000011885357154089696190_);" d="M2295.304,1227.242
					c16.196-31.651,44.36-52.491,61.396-83.517c21.458-39.083,22.32-90.753,8.437-134.181
					c-11.519-36.033-32.121-67.113-43.87-103.039c-15.813-48.354-16.059-69.173-8.675-117.785
					c6.504-42.819,20.623-88.446,55.28-113.097c42.867-30.491,95.222-36.408,144.173-25.568
					c50.81,11.252,100.035,36.739,137.118,79.341c37.084,42.601,61.177,102.457,60.403,163.899
					c-0.523,41.569-11.896,84.452-0.779,123.795c8.644,30.595,31.257,54.965,57.745,62.236c29.439,8.078,60.087-3.972,90.336-3.595
					c29.981,0.374,59.681,13.486,82.507,36.426c20.219,20.323,35.169,48.865,38.507,80.136c3.339,31.272-5.92,64.952-26.22,85.43
					c-13.881,14.004-33.39,23.516-38.555,44.231c-5.779,23.178,10.948,46.396,29.641,55.743
					c18.693,9.349,39.751,10.091,58.777,18.453c42.566,18.706,68.239,75.663,64.773,129.527
					c-3.466,53.864-32.278,102.698-69.979,133.132c-37.702,30.434-83.402,44.185-128.731,48.71
					c-45.33,4.523-90.865,0.372-136.277-2.032c-51.943-2.751-104.924-3.403-154.14-23.046
					c-49.769-19.864-92.718-58.024-132.753-98.265c-18.956-19.052-38.177-39.9-46.637-67.658
					c-6.143-20.155-6.114-42.566-13.186-62.281c-15.175-42.307-57.503-60.182-81.922-95.83
					C2277.915,1322.266,2274.825,1267.264,2295.304,1227.242z"/>
				<path style="fill:#BDD0FB;" d="M2907.429,1257.488c0.095-0.004,0.19-0.014,0.287-0.038c21.278-5.182,39.51-23.22,46.449-45.948
					c6.938-22.74,2.348-49.39-11.698-67.906c-20.86-27.498-55.942-33.465-90.09-37.219l-61.876-6.806
					c-34.92-3.839-70.775-9.884-91.837-37.374c-22.467-29.326-19.813-70.678-17.25-110.674c0.294-4.578,0.584-9.121,0.833-13.602
					c3.173-57.115-4.151-106.38-21.774-146.417c-21.502-48.85-59.411-83.933-101.406-93.841c-0.861-0.223-1.677,0.389-1.855,1.329
					c-0.175,0.932,0.373,1.849,1.22,2.046c41.051,9.687,78.139,44.059,99.217,91.953c17.384,39.5,24.606,88.181,21.467,144.687
					c-0.25,4.474-0.539,9.011-0.831,13.574c-2.609,40.688-5.306,82.756,17.988,113.158c21.828,28.494,58.375,34.695,93.938,38.604
					l61.876,6.806c33.498,3.678,67.884,9.49,87.975,35.978c13.358,17.61,17.726,42.958,11.128,64.578
					c-6.598,21.62-23.939,38.773-44.176,43.698c-0.844,0.208-1.373,1.127-1.18,2.058
					C2906.008,1256.962,2906.689,1257.517,2907.429,1257.488z"/>
				<path style="fill:#BDD0FB;" d="M2884.142,1234.261c0.769-0.03,1.528-0.37,2.106-1.013c7.219-8.055,15.402-17.186,20.026-28.537
					c4.201-10.308,5.911-25.43-1.9-36.98c-5.089-7.523-13.087-11.637-20.971-14.965c-19.132-8.079-39.122-13.619-59.421-16.451
					c-13.21-1.851-26.683-2.558-39.713-3.248c-16.824-0.887-34.219-1.806-50.962-5.196c-20.021-4.052-56.122-15.89-72.936-49.61
					c-13.589-27.253-10.143-58.368-6.494-91.308c2.958-26.706,6.016-54.328-0.65-80.201c-0.476-1.839-2.217-2.927-3.876-2.409
					c-1.667,0.51-2.632,2.412-2.159,4.251c6.319,24.529,3.339,51.445,0.455,77.473c-3.607,32.58-7.337,66.266,7.229,95.488
					c18.076,36.251,56.214,48.834,77.338,53.114c17.161,3.474,34.771,4.405,51.8,5.305c12.91,0.681,26.257,1.385,39.22,3.193
					c19.8,2.771,39.3,8.168,57.959,16.049c6.516,2.753,13.83,6.225,18.158,12.615c5.093,7.529,5.562,19.311,1.195,30.01
					c-4.165,10.225-11.595,18.517-18.78,26.53c-1.213,1.357-1.193,3.545,0.046,4.888
					C2882.456,1233.962,2883.306,1234.294,2884.142,1234.261z"/>
				
					<linearGradient id="SVGID_00000019650658600839375540000002032623975883724988_" gradientUnits="userSpaceOnUse" x1="3267.2061" y1="913.9" x2="2956.4922" y2="1119.3723">
					<stop  offset="0" style="stop-color:#FF928E"/>
					<stop  offset="1" style="stop-color:#FE7062"/>
				</linearGradient>
				<path style="fill:url(#SVGID_00000019650658600839375540000002032623975883724988_);" d="M2349.609,1143.256
					c34.036-10.804,133.314-31.339,229.446,54.547c16.303,14.567,23.231,36.988,17.842,58.176
					c-23.933,94.075-86.601,371.881-25.815,490.667c0,0-101.878,116.008-216.517,25.677c0,0-54.334-220.454-122.396-316.522
					c-46.991-66.323,69.149-253.012,98.569-298.137C2335.19,1150.833,2341.836,1145.723,2349.609,1143.256z"/>
				
					<linearGradient id="SVGID_00000068675433146291167100000004224002718230424711_" gradientUnits="userSpaceOnUse" x1="-5458.7041" y1="2083.2241" x2="-5431.3262" y2="1888.842" gradientTransform="matrix(0.9646 0.2639 -0.2639 0.9646 8180.2734 665.1306)">
					<stop  offset="0" style="stop-color:#FEBBBA"/>
					<stop  offset="1" style="stop-color:#FF928E"/>
				</linearGradient>
				<path style="fill:url(#SVGID_00000068675433146291167100000004224002718230424711_);" d="M2441.045,955.649
					c0,0,52.886,142.259,57.708,205.317c0,0-55.495,26.321-108.862-15.736c0,0-7.829-142.818-16.228-168.279L2441.045,955.649z"/>
				
					<linearGradient id="SVGID_00000147906905382209193710000016842825745389891005_" gradientUnits="userSpaceOnUse" x1="-5584.2183" y1="1666.7184" x2="-5328.23" y2="1961.0363" gradientTransform="matrix(0.9646 0.2639 -0.2639 0.9646 8180.2734 665.1306)">
					<stop  offset="0" style="stop-color:#FEBBBA"/>
					<stop  offset="1" style="stop-color:#FF928E"/>
				</linearGradient>
				<path style="fill:url(#SVGID_00000147906905382209193710000016842825745389891005_);" d="M2367.644,761.702
					c0,0-129.318,187.277-49.366,239.782c79.95,52.504,172.011-80.588,172.011-80.588s29.065-101.833-3.588-135.692
					C2454.048,751.343,2367.644,761.702,2367.644,761.702z"/>
				
					<linearGradient id="SVGID_00000174579065981090025800000001560192286816866999_" gradientUnits="userSpaceOnUse" x1="4358.6982" y1="742.6024" x2="5497.0352" y2="1987.429" gradientTransform="matrix(1 0 0 1 -1930.8882 0)">
					<stop  offset="0" style="stop-color:#09005D"/>
					<stop  offset="1" style="stop-color:#1A0F91"/>
				</linearGradient>
				<path style="fill:url(#SVGID_00000174579065981090025800000001560192286816866999_);" d="M2428.167,716.471
					c0,0-60.545,15.38-68.62,43.016c-8.076,27.638,87.042,51.613,113.599,52.433l23.17,110.625c0,0,61.526-105.409,35.516-165.295
					C2505.824,697.363,2428.167,716.471,2428.167,716.471z"/>
				
					<linearGradient id="SVGID_00000062873569733655098820000007528730787459078331_" gradientUnits="userSpaceOnUse" x1="-5520.2622" y1="1611.0857" x2="-5264.2759" y2="1905.4015" gradientTransform="matrix(0.9646 0.2639 -0.2639 0.9646 8180.2734 665.1306)">
					<stop  offset="0" style="stop-color:#FEBBBA"/>
					<stop  offset="1" style="stop-color:#FF928E"/>
				</linearGradient>
				<path style="fill:url(#SVGID_00000062873569733655098820000007528730787459078331_);" d="M2464.422,907.686
					c0,0,50.534-60.467,71.643-21.918c21.108,38.55-45.255,68.816-68.698,50.099L2464.422,907.686z"/>
				
					<linearGradient id="SVGID_00000173159395322638765620000000467820034029718455_" gradientUnits="userSpaceOnUse" x1="4443.7549" y1="3487.7336" x2="5054.5146" y2="2409.6113" gradientTransform="matrix(-1 0.0066 0.0066 1 7273.9033 -61.4477)">
					<stop  offset="0" style="stop-color:#FEBBBA"/>
					<stop  offset="1" style="stop-color:#FF928E"/>
				</linearGradient>
				<path style="fill:url(#SVGID_00000173159395322638765620000000467820034029718455_);" d="M2229.951,2239.033
					c0.55,10.039-15.803,90.001-24.718,132.657c-3.587,17.162-0.608,35.015,8.343,50.091l341.425,554.113
					c4.131,6.703,7.176,13.986,9.078,21.625c6.515,26.157,20.186,90.296,14.532,148.939l-16.621,35.992l74.1-18.085l12.964-199.984
					l-21.261-12.499c-18.367-10.797-32.798-27.148-41.224-46.718c-31.234-72.529-108.87-257.181-129.571-347.447
					c-23.523-102.587-139.181-184.355-139.181-184.355l19.317-47.802L2229.951,2239.033z"/>
				
					<linearGradient id="SVGID_00000134232358749808614330000007162878224060437680_" gradientUnits="userSpaceOnUse" x1="2719.4534" y1="2961.521" x2="3000.1125" y2="2591.7634">
					<stop  offset="0" style="stop-color:#09005D"/>
					<stop  offset="1" style="stop-color:#1A0F91"/>
				</linearGradient>
				<path style="fill:url(#SVGID_00000134232358749808614330000007162878224060437680_);" d="M2717.637,3094.309
					c0,0-41.187-63.026-46.311-87.736c-5.124-24.709-18.984-68.265-43.532-54.69c0,0-9.729,120.588-4.948,167.568
					c4.78,46.98-52.45,46.389-52.45,46.389s-15.73,2.47-27.089,14.199c-7.844,8.099-1.92,21.837,9.342,22.38
					c18.738,0.905,48.479,0.741,79.603-5.794c10.878-2.284,18.817-11.699,19.299-22.803l6.01-138.704l51.691,63.153
					L2717.637,3094.309z"/>
				
					<linearGradient id="SVGID_00000067937406728147044720000004253067983946988694_" gradientUnits="userSpaceOnUse" x1="2682.6951" y1="2574.238" x2="3259.6077" y2="2168.8403">
					<stop  offset="0" style="stop-color:#FEBBBA"/>
					<stop  offset="1" style="stop-color:#FF928E"/>
				</linearGradient>
				<path style="fill:url(#SVGID_00000067937406728147044720000004253067983946988694_);" d="M2429.966,2324.952
					c0,0,19.784,500.251,22.517,571.3c2.732,71.05-7.541,228.767-78.034,276.995l31.374,22.455c0,0,38.216-33.556,75.049-97.545
					c41.376-71.884,54.025-85.099,54.025-85.099l-14.575-28.669c-6.382-12.552-8.427-26.834-5.805-40.669
					c14.175-74.769,61.548-323.466,74.701-377.072c15.525-63.277,15.345-147.442-43.331-216.95
					C2487.21,2280.189,2429.966,2324.952,2429.966,2324.952z"/>
				
					<linearGradient id="SVGID_00000118392213059625788260000017855038572384181406_" gradientUnits="userSpaceOnUse" x1="2718.0762" y1="2605.5276" x2="2622.2959" y2="2803.771">
					<stop  offset="0" style="stop-color:#09005D"/>
					<stop  offset="1" style="stop-color:#1A0F91"/>
				</linearGradient>
				<path style="fill:url(#SVGID_00000118392213059625788260000017855038572384181406_);" d="M2510.141,3216.582
					c2.21-0.015,4.064-1.628,4.34-3.821c2.104-16.722,10.895-83.769,18.694-101.219c8.933-19.984,37.811-103.955-1.795-110.407
					c0,0-95.871,145.026-114.407,164.668c-18.536,19.645-42.524,7.444-42.524,7.444s-18.276,5.721-31.839,23.641
					c-6.454,8.529-0.116,20.794,10.58,20.724l66.142-0.435c19.209-0.126,36.295-12.071,43.148-30.017
					c11.173-29.263,30.482-72.233,53.483-91.528l-10.242,116.153C2505.492,3214.375,2507.541,3216.6,2510.141,3216.582
					L2510.141,3216.582z"/>
				
					<linearGradient id="SVGID_00000123436425758946487040000012140555116133056411_" gradientUnits="userSpaceOnUse" x1="3502.2407" y1="1298.0027" x2="3146.4231" y2="1558.6012">
					<stop  offset="0" style="stop-color:#09005D"/>
					<stop  offset="1" style="stop-color:#1A0F91"/>
				</linearGradient>
				<path style="fill:url(#SVGID_00000123436425758946487040000012140555116133056411_);" d="M2338.041,1718.619
					c0,0,15.668,47.26-5.965,125.864l-134.034,498.237c-2.106,7.829,2.231,15.917,9.905,18.533
					c42.727,14.562,183.072,55.407,373.496,39.195c9.587-0.816,17.526-7.741,19.461-17.168
					c11.651-56.742,51.401-250.341,59.588-290.12c31.191-151.575,66.111-315.056-100.637-410.882
					C2484.262,1716.105,2413.579,1736.465,2338.041,1718.619z"/>
				
					<linearGradient id="SVGID_00000122684577596050696000000012733836834431819142_" gradientUnits="userSpaceOnUse" x1="5325.0356" y1="-585.2986" x2="6320.3193" y2="-1723.7567" gradientTransform="matrix(-0.4499 -0.9022 -0.9989 0.5801 3996.1494 6925.918)">
					<stop  offset="0" style="stop-color:#FEBBBA"/>
					<stop  offset="1" style="stop-color:#FF928E"/>
				</linearGradient>
				<path style="fill:url(#SVGID_00000122684577596050696000000012733836834431819142_);" d="M2625.44,1265.099
					c0,0-33.298,225.391-181.985,384.675c-118.523,126.969-222.17,2.91-272.416-47.009c-10.648-10.578-26.486-20.022-30.071-35.639
					c-5.004-21.8-7.609-39.001-60.141-56.8c-44.885-15.208,82.695-54.323,112.223-11.299c29.526,43.023-22.764,51.51,50.521,89.178
					c71.391,36.693,190.751,4.003,228.705-251.606c2.199-14.816,7.895-29.539,16.986-42.57
					C2552.691,1203.114,2623.701,1185.936,2625.44,1265.099z"/>
			</g>
		</g>
	</g>
</g>
</svg>
